<?xml version="1.0" encoding="UTF-8" standalone="no" ?>
<!DOCTYPE svg PUBLIC "-//W3C//DTD SVG 1.1//EN" "http://www.w3.org/Graphics/SVG/1.1/DTD/svg11.dtd">
<svg xmlns="http://www.w3.org/2000/svg" xmlns:xlink="http://www.w3.org/1999/xlink" version="1.1" width="1280" height="1024" viewBox="0 0 1280 1024" xml:space="preserve">
<desc>Created with Fabric.js 4.4.0</desc>
<defs>
</defs>
<g transform="matrix(1 0 0 1 640 512)" id="background-logo"  >
<rect style="stroke: none; stroke-width: 0; stroke-dasharray: none; stroke-linecap: butt; stroke-dashoffset: 0; stroke-linejoin: miter; stroke-miterlimit: 4; fill: rgb(255,255,255); fill-opacity: 0; fill-rule: nonzero; opacity: 1;"  paint-order="stroke"  x="-640" y="-512" rx="0" ry="0" width="1280" height="1024" />
</g>
<g transform="matrix(7.319790946971731 0 0 7.319790946971731 640.448523777597 512.4545040946315)" id="logo-logo"  >
<g style=""  paint-order="stroke"   >
		<g transform="matrix(0.20112810420603888 0 0 -0.20112810420603888 44.108131713786804 -38.160261130768504)"  >
<path style="stroke: none; stroke-width: 1; stroke-dasharray: none; stroke-linecap: butt; stroke-dashoffset: 0; stroke-linejoin: miter; stroke-miterlimit: 10; fill: rgb(58,112,188); fill-rule: nonzero; opacity: 1;"  paint-order="stroke"  transform=" translate(-1894.6237110688971, -8014.1849999999995)" d="M 2038.7 8106.4 C 2084.75 8106.4 2108.36 8068.71 2091.34 8022.65 L 2053.98 7921.969999999999 L 1965.17 7921.969999999999 L 2002.74 8023.11 L 1731.26 8023.11 L 1692.3799999999999 8106.4 L 2038.6999999999998 8106.4" stroke-linecap="round" />
</g>
		<g transform="matrix(0.20112810420603888 0 0 -0.20112810420603888 -0.006310856094387418 -0.00000750478000099974)"  >
<path style="stroke: none; stroke-width: 1; stroke-dasharray: none; stroke-linecap: butt; stroke-dashoffset: 0; stroke-linejoin: miter; stroke-miterlimit: 10; fill: rgb(71,148,212); fill-rule: nonzero; opacity: 1;"  paint-order="stroke"  transform=" translate(-1675.29, -7824.455)" d="M 2037.89 7878.63 L 1943.44 7623.7 L 2027.3 7542.51 C 1926.28 7542.51 1825.36 7542.51 1724.4499999999998 7542.51 L 1561.5099999999998 7890.95 C 1568.4399999999998 7900.71 1572.4499999999998 7912.69 1572.4499999999998 7925.51 C 1572.4499999999998 7958.74 1545.5199999999998 7985.650000000001 1512.2799999999997 7985.650000000001 C 1479.0399999999997 7985.650000000001 1452.1399999999996 7958.740000000001 1452.1399999999996 7925.51 C 1452.1399999999996 7894 1476.3399999999997 7868.18 1507.2299999999996 7865.58 L 1551.7599999999995 7770.3099999999995 L 1312.6899999999996 7770.3099999999995 L 1407.2699999999995 8025.219999999999 L 1323.3799999999994 8106.4 C 1424.2899999999995 8106.4 1525.3299999999995 8106.4 1626.2499999999995 8106.4 L 1789.1799999999996 7757.95 C 1782.2599999999995 7748.11 1778.2599999999995 7736.23 1778.2599999999995 7723.429999999999 C 1778.2599999999995 7690.19 1805.1599999999996 7663.289999999999 1838.3999999999996 7663.289999999999 C 1871.6399999999996 7663.289999999999 1898.5499999999997 7690.189999999999 1898.5499999999997 7723.429999999999 C 1898.5499999999997 7754.919999999999 1874.3599999999997 7780.7699999999995 1843.4599999999998 7783.349999999999 L 1798.9199999999998 7878.629999999999 L 2037.8899999999999 7878.629999999999" stroke-linecap="round" />
</g>
		<g transform="matrix(0.20112810420603888 0 0 -0.20112810420603888 32.789836563019776 20.330130993425797)"  >
<path style="stroke: none; stroke-width: 1; stroke-dasharray: none; stroke-linecap: butt; stroke-dashoffset: 0; stroke-linejoin: miter; stroke-miterlimit: 10; fill: rgb(58,112,188); fill-rule: nonzero; opacity: 1;"  paint-order="stroke"  transform=" translate(-1838.35, -7723.375)" d="M 1838.4 7750.21 C 1853.21 7750.21 1865.2 7738.2300000000005 1865.2 7723.43 C 1865.2 7708.52 1853.21 7696.54 1838.4 7696.54 C 1823.5900000000001 7696.54 1811.5 7708.5199999999995 1811.5 7723.43 C 1811.5 7738.2300000000005 1823.59 7750.21 1838.4 7750.21" stroke-linecap="round" />
</g>
		<g transform="matrix(0.20112810420603888 0 0 -0.20112810420603888 -44.10336303919911 38.15724420920546)"  >
<path style="stroke: none; stroke-width: 1; stroke-dasharray: none; stroke-linecap: butt; stroke-dashoffset: 0; stroke-linejoin: miter; stroke-miterlimit: 10; fill: rgb(58,112,188); fill-rule: nonzero; opacity: 1;"  paint-order="stroke"  transform=" translate(-1456.0425792928772, -7634.74)" d="M 1619.31 7625.8 L 1658.31 7542.51 L 1312 7542.51 C 1265.94 7542.51 1242.2 7580.2300000000005 1259.36 7626.280000000001 L 1296.7199999999998 7726.97 L 1385.4299999999998 7726.97 L 1347.9399999999998 7625.8 L 1619.31 7625.8" stroke-linecap="round" />
</g>
		<g transform="matrix(0.20112810420603888 0 0 -0.20112810420603888 -32.80142313313854 -20.33314791498887)"  >
<path style="stroke: none; stroke-width: 1; stroke-dasharray: none; stroke-linecap: butt; stroke-dashoffset: 0; stroke-linejoin: miter; stroke-miterlimit: 10; fill: rgb(58,112,188); fill-rule: nonzero; opacity: 1;"  paint-order="stroke"  transform=" translate(-1512.235, -7925.549999999999)" d="M 1512.28 7952.4 C 1527.09 7952.4 1539.08 7940.429999999999 1539.08 7925.509999999999 C 1539.08 7910.679999999999 1527.09 7898.699999999999 1512.28 7898.699999999999 C 1497.48 7898.699999999999 1485.3899999999999 7910.6799999999985 1485.3899999999999 7925.509999999999 C 1485.3899999999999 7940.429999999999 1497.4799999999998 7952.4 1512.28 7952.4" stroke-linecap="round" />
</g>
</g>
</g>
</svg>